Subtitles: English, Spanish, French and Portuguese 

Don Giulio, giovane prete romano, ritorna a casa dopo essere stato parroco in un'isola del Mar Tirreno ed è destinato ad una chiesa di periferia. A Roma egli ritrova i genitori, la sorella e i vecchi amici. Ma la realtà è diversa da quella che lui ha lasciato. La parrocchia è praticamente deserta : il suo predecessore si è sposato, ha un figlio e vive a pochi metri dalla canonica; ed anche gli amici sono cambiati (chi è sotto processo per terrorismo; chi vuol farsi sacerdote senza capire perchè; chi è omosessuale e sta vivendo squallide avventure; chi è stato abbandonato dall'amica e vive in un isolamento totale). Neppure in famiglia le cose vanno meglio. Il padre, ormai anziano, ha preso una sbandata per una donna e lascia la moglie, che si suicida. La sorella è incinta del fidanzato e don Giulio riesce a stento a non farla abortire...

Screenshots:
 
http://img267.imageshack.us/img267/5038/bscap0001dm.jpg 
http://img209.imageshack.us/img209/586/bscap0008v.jpg 
http://img816.imageshack.us/img816/9831/bscap0016w.jpg 
http://img600.imageshack.us/img600/5793/bscap0017we.jpg

 
      Format : AVI
      Format/Info : Audio Video Interleave
      File size : 1 000 MiB
      Duration : 1h 31mn
      Overall bit rate : 1 521 Kbps
      Writing application : VirtualDubMod 1.5.1.1a (build 1155/release)
      Writing library : VirtualDubMod build 1155/release
   Video #0
      ID : 0
      Format : MPEG-4 Visual
      Format profile : AdvancedSimple@L5
      Format settings, BVOP : Yes
      Format settings, QPel : No
      Format settings, GMC : No warppoints
      Format settings, Matrix : Default (MPEG)
      Codec ID : XVID
      Codec ID/Hint : XviD
      Duration : 1h 31mn
      Bit rate : 1 383 Kbps
      Width : 720 pixels
      Height : 384 pixels
      Display aspect ratio : 1.875
      Frame rate : 25.000 fps
      Resolution : 24 bits
      Colorimetry : 4:2:0
      Scan type : Progressive
      Bits/(Pixel*Frame) : 0.200
      Stream size : 909 MiB (91%)
      Writing library : XviD 1.2.0.dev47 (UTC 2006-11-01)
   Audio #1
      ID : 1
      Format : MPEG Audio
      Format version : Version 1
      Format profile : Layer 3
      Codec ID : 55
      Codec ID/Hint : MP3
      Duration : 1h 31mn
      Bit rate mode : Constant
      Bit rate : 128 Kbps
      Channel(s) : 2 channels
      Sampling rate : 48.0 KHz
      Resolution : 16 bits
      Video delay : 24ms
      Stream size : 84.0 MiB (8%)
      Alignment : Aligned on interleaves
      Interleave, duration : 40 ms (1.00 video frame)
      Interleave, preload duration : 480 ms

 